<?xml version="1.0" encoding="UTF-8"?>
<svg id="Layer_1" xmlns="http://www.w3.org/2000/svg" version="1.1" viewBox="0 0 46.9 82.6">
  <!-- Generator: Adobe Illustrator 29.0.0, SVG Export Plug-In . SVG Version: 2.1.0 Build 186)  -->
  <path d="M46.6,48.2c.8,2,0,4.3-1.9,5.2-.6.3-1.1.4-1.7.4-1.6,0-3.1-1-3.7-2.5l-4.5-11.6-.3,10.1,1.5,27.9c.1,2.5-1.8,4.7-4.3,4.8,0,0-.2,0-.3,0-2.4,0-4.5-1.9-4.6-4.3l-1.4-24.7c0-.3-.2-.5-.5-.5h-2.9c-.3,0-.5.2-.5.5l-1.4,24.7c-.1,2.5-2.2,4.3-4.6,4.3s-.2,0-.3,0c-2.5-.1-4.5-2.3-4.3-4.8l1.5-27.9-.3-10.1-4.5,11.6c-.6,1.6-2.1,2.5-3.7,2.5s-1.2-.1-1.7-.4c-1.9-.9-2.7-3.3-1.9-5.2l9.7-24.9c.5-1.4,1.8-2.3,3.2-2.5h20.5c1.4.2,2.6,1.1,3.2,2.5l9.7,24.9ZM23.4,17.2c4.7,0,8.6-3.9,8.6-8.6S28.2,0,23.4,0s-8.6,3.9-8.6,8.6,3.9,8.6,8.6,8.6Z"/>
</svg>