<?xml version="1.0" encoding="UTF-8"?>
<svg id="Layer_1" data-name="Layer 1" xmlns="http://www.w3.org/2000/svg" viewBox="0 0 581.2873 1024">
  <path d="M577.6033,596.951c9.6372,24.6181-.0764,53.7136-23.9584,65.0524-6.937,3.2941-14.2001,4.8398-21.3278,4.8398-19.8162,0-38.5307-11.9599-46.1812-31.5218l-56.0832-143.2586-3.5166,125.7394,18.9627,346.0594c1.731,31.4432-22.3703,58.3287-53.8075,60.0537-1.0653.0545-2.1184.0847-3.1716.0847-30.0692,0-55.2237-23.5203-56.8821-53.9043l-16.8073-306.7479c-.1808-3.2866-2.8977-5.8589-6.1888-5.8589h-36.0076c-3.2918,0-6.0087,2.5723-6.1888,5.8589l-16.808,306.7479c-1.6584,30.384-26.825,53.9043-56.8822,53.9043-1.0531,0-2.1063-.0303-3.1716-.0847-31.4371-1.725-55.5385-28.6106-53.8075-60.0537l18.9627-346.1154-3.5166-125.6652-56.0711,143.2404c-7.6505,19.5619-26.3651,31.5218-46.1812,31.5218-7.1277,0-14.3908-1.5457-21.327-4.8398-23.882-11.3388-33.5964-40.4343-23.9591-65.0524l120.665-308.2429c6.7305-17.2135,22.0798-28.3231,39.1602-30.794l254.2629-.0015c17.0743,2.4695,32.4297,13.579,39.1663,30.7955l120.665,308.2429ZM290.6406,213.3021c58.8008,0,106.6525-47.8426,106.6525-106.6495S349.4414,0,290.6406,0s-106.6465,47.8426-106.6465,106.6525,47.8457,106.6495,106.6465,106.6495Z"/>
</svg>