<?xml version="1.0" encoding="UTF-8"?>
<svg id="Layer_1" xmlns="http://www.w3.org/2000/svg" version="1.1" viewBox="0 0 995.6 995.6">
  <!-- Generator: Adobe Illustrator 29.0.0, SVG Export Plug-In . SVG Version: 2.1.0 Build 186)  -->
  <path d="M497.8,0C222.9,0,0,222.9,0,497.8s222.9,497.8,497.8,497.8,497.8-222.9,497.8-497.8S772.7,0,497.8,0ZM498.2,529.6c16.3.3,29.2,13.8,28.9,30.1l.4,40.5c0,10.9-7.8,28.9-30,28.9-16.3,0-29.2-13.8-29-30.1l-.4-40.5c.3-16.3,13.8-29.2,30.1-29h0ZM212,267.2c0-11,9.3-19.9,20.3-19.8l97.5-.4c11.1.2,19.9,9.3,19.8,20.4-.2,11-9.3,19.9-20.3,19.7l-97.5.4c-7.4,0-19.7-5.2-19.8-20.3h0ZM315.7,545.3c-47.1,0-84.6-37.5-84.6-81.4s37.5-84.6,84.6-84.6,84.6,37.5,84.6,84.6-37.5,81.4-84.6,81.4ZM594.8,816.3l-194.4.3c-5.7,0-15.3-4-15.3-15.7,0-8.6,7.2-15.4,15.7-15.3l194.4-.3c8.6.1,15.4,7.2,15.3,15.8-.1,8.6-7.2,15.4-15.8,15.3h0ZM679.9,545.3c-47.1,0-84.6-37.5-84.6-81.4s37.5-84.6,84.6-84.6,84.6,37.5,84.6,84.6-37.5,81.4-84.6,81.4ZM763.3,287.1l-97.5.4c-7.4,0-19.7-5.2-19.8-20.3,0-11,9.3-19.9,20.3-19.8l97.5-.4c11.1.2,19.9,9.3,19.8,20.4-.2,11-9.3,19.9-20.3,19.7h0Z"/>
</svg>