<?xml version="1.0" encoding="UTF-8"?>
<svg id="Layer_1" xmlns="http://www.w3.org/2000/svg" version="1.1" viewBox="0 0 1024 1024">
  <!-- Generator: Adobe Illustrator 29.0.0, SVG Export Plug-In . SVG Version: 2.1.0 Build 186)  -->
  <defs>
    <style>
      .st0 {
        fill-rule: evenodd;
      }
    </style>
  </defs>
  <path class="st0" d="M1007.7,263v284.5c0,125.2-72.5,210.9-146.6,264.4-70.1,50.5-140.3,71.2-140.3,71.2,0,0,0,0,0,0-9.9,3-20.5,3-30.5,0,0,0,0,0,0,0,0,0-70.2-20.7-140.3-71.2-74.2-53.4-146.6-139.1-146.6-264.4v-284.5c0-29.4,23.9-53.3,53.3-53.3h56.1c45.6,0,90.2-13.5,128.2-38.8l35-23.3c17.9-11.9,41.2-11.9,59.2,0l35,23.3c38,25.3,82.6,38.8,128.2,38.8h56.1c29.5,0,53.4,23.9,53.4,53.3h0Z"/>
  <path d="M302.1,675.8h-69.6c-2.9,0-5.1-2.2-5.1-5.1l35.5-466.5c0-1.5-.7-3.6-.7-5.1L188.2,23.5c-4.4-8.7-17.4-8.7-21.8,0l-74,175.6c-.7,2.2-.7,3.6-.7,5.1l34.1,466.5c0,2.9-2.2,5.1-5.1,5.1H51.1c-18.9,0-34.1,15.2-34.1,34.1,0,18.9,15.2,34.1,34.1,34.1h88.5c2.9,0,5.1,2.2,3.6,5.1-5.8,24.7-10.1,56.6-10.1,91.4s2.2,55.9,7.3,78.4c.7,2.2,0,4.4-2.2,6.5-9.4,10.9-13.8,25.4-11.6,40.6,3.6,19.6,18.9,36.3,38.4,39.9,32.6,6.5,60.9-17.4,60.9-49.3,0-13.1-5.1-24-12.3-32.6-1.4-1.4-2.2-3.6-2.2-6.5,5.1-22.5,7.2-49.3,7.3-78.4,0-34.8-3.6-67.5-10.1-91.4-.7-2.2,1.4-5.8,3.6-5.1h88.5c18.9,0,34.1-15.2,34.1-34.1,1.5-17.4-13.7-32.7-32.6-32.7h0Z"/>
</svg>