<?xml version="1.0" encoding="UTF-8"?>
<svg id="Layer_1" data-name="Layer 1" xmlns="http://www.w3.org/2000/svg" viewBox="0 0 990.7557 990.0576">
  <defs>
    <style>
      .cls-1 {
        fill-rule: evenodd;
      }
    </style>
  </defs>
  <path class="cls-1" d="M990.7511,246.0696v284.5013c0,125.2274-72.4699,210.9292-146.6253,264.3612-70.1053,50.5139-140.3364,71.2413-140.3364,71.2413-.0307.0307-.0614.0307-.0614.0307-9.949,2.9786-20.5434,2.9786-30.5231,0-.0307-.0307-.0614-.0307-.0614-.0307,0,0-70.228-20.7274-140.3364-71.2413-74.1585-53.4311-146.6253-139.1023-146.6253-264.3611V246.0697c0-29.4485,23.8907-53.3392,53.3392-53.3392h56.1023c45.6314,0,90.2455-13.5117,128.2068-38.8142l35.0063-23.3381c17.9328-11.9449,41.2402-11.9449,59.1729,0l35.0063,23.3381c37.9849,25.3033,82.6045,38.8142,128.2068,38.8142h56.1024c29.5404,0,53.4311,23.8907,53.4311,53.3392h-.0046Z"/>
  <path d="M285.1627,658.8289h-69.6374c-2.8876,0-5.0638-2.1762-5.0847-5.0847l35.5311-466.5328c0-1.4647-.7324-3.62-.7324-5.0847L171.2492,6.5259c-4.3526-8.7049-17.4093-8.7047-21.7826.0214l-74.0111,175.5799c-.7114,2.1762-.7324,3.62-.7324,5.0847l34.1062,466.5327c0,2.8876-2.1762,5.0638-5.0847,5.0847H34.1073c-18.8739,0-34.1073,15.2334-34.1073,34.1073,0,18.8739,15.2334,34.1073,34.1073,34.1073h88.5112c2.8876,0,5.0638,2.1762,3.62,5.0847-5.7965,24.6704-10.1488,56.6012-10.1488,91.4199,0,29.0431,2.1764,55.869,7.261,78.3629.7114,2.1762,0,4.3523-2.1762,6.5285-9.4159,10.8807-13.7892,25.3812-11.5925,40.6355,3.641,19.5858,18.8739,36.2832,38.4386,39.9034,32.6422,6.5282,60.9327-17.4093,60.9327-49.3407,0-13.0576-5.0846-23.9585-12.3456-32.6423-1.4438-1.4438-2.1762-3.6409-2.1762-6.5285,5.0846-22.494,7.2396-49.3402,7.261-78.3629,0-34.8187-3.6201-67.4818-10.1488-91.4199-.7114-2.1762,1.4438-5.7961,3.62-5.0847h88.5112c18.8739,0,34.1073-15.2334,34.1073-34.1073,1.4854-17.4302-13.7475-32.6631-32.6219-32.6637h.0024Z"/>
</svg>