<?xml version="1.0" encoding="UTF-8"?>
<svg id="Layer_1" data-name="Layer 1" xmlns="http://www.w3.org/2000/svg" viewBox="0 0 110.0179 115.0179">
  <defs>
    <style>
      .cls-1 {
        fill: none;
      }

      .cls-2 {
        fill: #202020;
      }
    </style>
  </defs>
  <path class="cls-2" d="M66.5122,89.0858c17.2651-3.0009,28.7711-15.0084,28.7711-15.0084,0,0-8.6288-18.0145-8.6288-33.0267,0-24.0228-14.3893-36.0328-31.6519-36.0328v.0183c-17.2651,0-31.6519,11.9944-31.6519,36.0159,0,15.0123-8.6326,33.0254-8.6326,33.0254,0,0,11.5097,12.0075,28.7723,15.0097C17.5951,98.0976,0,107.1042,0,113.1047v1.9132h109.9975v-1.9132h.0025c.0025-6.0018-17.5901-15.0097-43.4878-24.0189ZM58.6258,74.6082c-.9299.9325-2.1597,1.4007-3.6857,1.4007s-2.7546-.4682-3.6857-1.4007c-.9299-.9377-1.3948-2.1219-1.3948-3.5578,0-1.4568.4762-2.6566,1.4273-3.606.9511-.9455,2.1685-1.4189,3.6533-1.4189s2.7021.4734,3.652,1.4189c.9524.9494,1.4286,2.1467,1.4286,3.606.0025,1.4359-.4637,2.6201-1.3948,3.5578ZM61.6528,53.422c-1.5885,1.5937-2.4984,3.456-2.7284,5.6014l-.1275,1.9967h-8.0302c0-3.0609.3562-5.4945,1.0674-7.3059.7112-1.8167,2.0122-3.5995,3.9045-5.3536,1.8935-1.7632,3.1521-3.1913,3.7807-4.2946.6274-1.102.9399-2.2666.9399-3.4913,0-3.6934-1.631-5.5414-4.8931-5.5414-1.5473,0-2.7859.4956-3.717,1.4933-.9299.9964-1.4161,2.3671-1.4586,4.1133h-9.095c.0425-4.1668,1.3323-7.4324,3.8732-9.7904,2.5409-2.3632,6.0067-3.5408,10.3973-3.5408,4.4331,0,7.8727,1.1164,10.3186,3.3608,2.4459,2.2353,3.6707,5.3993,3.6707,9.48,0,1.861-.3962,3.6112-1.1911,5.2584-.7961,1.6537-2.186,3.4795-4.1719,5.4866l-2.5397,2.5275Z"/>
  <rect class="cls-1" x=".0179" width="110" height="115"/>
</svg>