<?xml version="1.0" encoding="UTF-8"?>
<svg id="Layer_1" data-name="Layer 1" xmlns="http://www.w3.org/2000/svg" viewBox="0 0 100 100">
  <defs>
    <style>
      .cls-1 {
        fill: #202020;
      }
    </style>
  </defs>
  <path class="cls-1" d="M59.92,76.31c7.84-7.41,11.88-14.37,14.25-23.1,1.71-.66,3.29-2.49,4.08-5.03,1.07-3.42.32-6.93-1.65-8.36.25-2.09.47-4.26.69-6.57C79.35,10.73,70.39-1.76,50,.2c-5.36.52-8.87,3.94-8.87,3.94-14.19-3.55-20.16,12.44-18.43,29.11.24,2.29.48,4.46.75,6.54-2.01,1.4-2.79,4.94-1.71,8.4.81,2.6,2.45,4.44,4.2,5.07,2.36,8.7,6.3,15.67,14.13,23.05C20.23,81.99,0,90.52,0,99.05v.95h100v-.95h0c0-8.53-20.23-17.06-40.08-22.74ZM52.99,63.15c-.77.85-1.78,1.27-3.04,1.27s-2.28-.42-3.05-1.27c-.77-.85-1.15-1.93-1.15-3.23s.39-2.41,1.18-3.27c.79-.86,1.79-1.29,3.02-1.29s2.23.43,3.02,1.29c.79.86,1.18,1.95,1.18,3.27,0,1.3-.38,2.38-1.16,3.23ZM55.49,43.92c-1.31,1.45-2.06,3.14-2.25,5.08l-.11,1.81h-6.63c0-2.78.29-4.99.88-6.63.59-1.65,1.66-3.27,3.23-4.86,1.56-1.6,2.61-2.9,3.12-3.9.52-1,.78-2.06.78-3.17,0-3.35-1.35-5.03-4.04-5.03-1.28,0-2.3.45-3.07,1.35-.77.9-1.17,2.15-1.21,3.73h-7.51c.03-3.78,1.1-6.74,3.2-8.88,2.1-2.14,4.96-3.21,8.59-3.21s6.51,1.01,8.53,3.05c2.02,2.03,3.03,4.9,3.03,8.6,0,1.69-.33,3.28-.98,4.77-.66,1.5-1.81,3.16-3.45,4.98l-2.1,2.29Z"/>
</svg>