<?xml version="1.0" encoding="UTF-8"?>
<svg xmlns="http://www.w3.org/2000/svg" viewBox="0 0 110 115">
  <defs>
    <style>
      .cls-1 {
        fill: none;
      }

      .cls-2 {
        fill: #202020;
      }
    </style>
  </defs>
  <g id="Layer_1" data-name="Layer 1">
    <path class="cls-2" d="M65.9134,88.9379c8.6264-8.1515,13.0629-15.8122,15.6748-25.406,1.8768-.7303,3.6196-2.7428,4.4887-5.5285,1.1781-3.7672.3545-7.6191-1.8132-9.1994.2749-2.2937.5215-4.6889.7566-7.2286,2.2677-24.7773-7.5869-38.5081-30.0239-36.355-5.8987.5676-9.758,4.3322-9.758,4.3322-15.6055-3.9052-22.1768,13.6826-20.2681,32.0254.2658,2.5202.5328,4.905.8237,7.1895-2.2097,1.5452-3.0686,5.4335-1.8791,9.2371.8918,2.8547,2.6983,4.888,4.6228,5.5727,2.596,9.5704,6.9337,17.235,15.5431,25.3566C22.2495,95.1888,0,104.5757,0,113.9547v1.0453h109.9966v-1.0453h.0034c-.0011-9.379-22.2518-18.7659-44.0866-25.0168ZM58.2913,74.4599c-.8441.9307-1.9621,1.3981-3.3481,1.3981-1.3895,0-2.5051-.4673-3.3504-1.3981-.8453-.936-1.2668-2.1179-1.2668-3.5511,0-1.454.4329-2.6516,1.2974-3.5993.8646-.9438,1.9711-1.4163,3.3208-1.4163s2.4563.4725,3.3208,1.4163c.8646.9477,1.2974,2.1427,1.2974,3.5993-.0011,1.4332-.4226,2.6165-1.2713,3.5511ZM61.0441,53.3145c-1.444,1.5907-2.2711,3.4496-2.4801,5.591l-.1159,1.993h-7.2983c0-3.0552.3238-5.4842.9702-7.2923.6453-1.8133,1.828-3.5928,3.5481-5.3436,1.7201-1.76,2.8664-3.1854,3.4356-4.2866.5692-1.1.8555-2.2624.8555-3.4848,0-3.6865-1.4826-5.5311-4.449-5.5311-1.4065,0-2.5324.4947-3.3776,1.4905-.8475.9945-1.2895,2.3627-1.327,4.1057h-8.2663c.0364-4.1591,1.21-7.4186,3.5231-9.7722,2.3074-2.3588,5.459-3.5342,9.449-3.5342,4.0298,0,7.1563,1.1143,9.3808,3.3546,2.2234,2.2312,3.3356,5.3892,3.3356,9.4623,0,1.8576-.3601,3.6045-1.0827,5.2486-.7214,1.6506-1.9859,3.473-3.7923,5.4764l-2.3086,2.5228Z"/>
  </g>
  <g id="Layer_2" data-name="Layer 2">
    <rect class="cls-1" width="109.9966" height="115"/>
  </g>
</svg>