<?xml version="1.0" encoding="UTF-8"?>
<svg id="Layer_1" data-name="Layer 1" xmlns="http://www.w3.org/2000/svg" viewBox="0 0 100 100">
  <defs>
    <style>
      .cls-1 {
        fill: #202020;
      }
    </style>
  </defs>
  <path class="cls-1" d="M60.47,76.43c15.7-2.73,26.16-13.64,26.16-13.64,0,0-7.84-16.38-7.84-30.02C78.78,10.92,65.7,0,50,0v.02C34.31.02,21.23,10.92,21.23,32.76c0,13.65-7.85,30.02-7.85,30.02,0,0,10.46,10.92,26.16,13.65C16,84.62,0,92.81,0,98.26v1.74h100v-1.74h0c0-5.46-15.99-13.65-39.53-21.84ZM53.3,63.26c-.85.85-1.96,1.27-3.35,1.27s-2.5-.43-3.35-1.27c-.85-.85-1.27-1.93-1.27-3.23s.43-2.42,1.3-3.28c.86-.86,1.97-1.29,3.32-1.29s2.46.43,3.32,1.29c.87.86,1.3,1.95,1.3,3.28,0,1.31-.42,2.38-1.27,3.23ZM56.05,44c-1.44,1.45-2.27,3.14-2.48,5.09l-.12,1.82h-7.3c0-2.78.32-4.99.97-6.64.65-1.65,1.83-3.27,3.55-4.87,1.72-1.6,2.87-2.9,3.44-3.9.57-1,.85-2.06.85-3.17,0-3.36-1.48-5.04-4.45-5.04-1.41,0-2.53.45-3.38,1.36-.85.91-1.29,2.15-1.33,3.74h-8.27c.04-3.79,1.21-6.76,3.52-8.9,2.31-2.15,5.46-3.22,9.45-3.22s7.16,1.01,9.38,3.06c2.22,2.03,3.34,4.91,3.34,8.62,0,1.69-.36,3.28-1.08,4.78-.72,1.5-1.99,3.16-3.79,4.99l-2.31,2.3Z"/>
</svg>